# xmcd
#
# Track frame offsets:
# 150
# 12192
# 23263
# 34565
# 46869
# 61380
# 75478
# 90688
# 101505
# 114935
# 126996
# 137995
# 149877
# 159730
# 175236
# 187061
#
# Disc length: 2647 seconds
#
# Revision: 0
# Processed by: cddbd v1.5PL3 Copyright (c) Steve Scherf et al.
# Submitted via: Audion 3.0.2 (http://www.panic.com/audion/)
#
DISCID=d20a5510
DTITLE=Ike Turner - A Black Man's Soul
DYEAR=1900
DGENRE=
TTITLE0=Thinking Black
TTITLE1=Black Beauty
TTITLE2=Ghetto Funk
TTITLE3=Black's Alley
TTITLE4=Black Angel
TTITLE5=Getting Nasty
TTITLE6=Funky Mule
TTITLE7=Philly Dog
TTITLE8=Scotty Souling 
TTITLE9=Up Hard
TTITLE10=Nuttin' Up
TTITLE11=Freedom Sound
TTITLE12=Chain of Fools
TTITLE13=No More Doggin'
TTITLE14=Knock on Wood
TTITLE15=Drifting Blues
EXTD=
EXTT0=
EXTT1=
EXTT2=
EXTT3=
EXTT4=
EXTT5=
EXTT6=
EXTT7=
EXTT8=
EXTT9=
EXTT10=
EXTT11=
EXTT12=
EXTT13=
EXTT14=
EXTT15=
PLAYORDER=
